<svg width="28" height="28" viewBox="0 0 28 28" fill="none" xmlns="http://www.w3.org/2000/svg">
<path d="M1.57031 4.20175H4.94139L7.14203 10.805C7.67899 12.4163 8.70936 13.8177 10.0872 14.8107C11.465 15.8037 13.1203 16.3379 14.8186 16.3377H18.4257C20.3926 16.3377 22.279 15.5563 23.6699 14.1655C25.0607 12.7746 25.8421 10.8882 25.8421 8.92128C25.8421 6.95433 25.0607 5.06794 23.6699 3.67709C22.279 2.28625 20.3926 1.50488 18.4257 1.50488H17.7515V9.5955M6.96403 9.5955H25.8421M11.0093 20.383L12.3578 16.3377M20.4483 16.3377L21.7968 20.383M6.96403 23.0799C6.96403 23.7951 7.24817 24.4811 7.75393 24.9868C8.25969 25.4926 8.94564 25.7767 9.66089 25.7767C10.3761 25.7767 11.0621 25.4926 11.5679 24.9868C12.0736 24.4811 12.3578 23.7951 12.3578 23.0799C12.3578 22.3646 12.0736 21.6786 11.5679 21.1729C11.0621 20.6671 10.3761 20.383 9.66089 20.383C8.94564 20.383 8.25969 20.6671 7.75393 21.1729C7.24817 21.6786 6.96403 22.3646 6.96403 23.0799ZM20.4483 23.0799C20.4483 23.7951 20.7325 24.4811 21.2382 24.9868C21.744 25.4926 22.4299 25.7767 23.1452 25.7767C23.8605 25.7767 24.5464 25.4926 25.0522 24.9868C25.5579 24.4811 25.8421 23.7951 25.8421 23.0799C25.8421 22.3646 25.5579 21.6786 25.0522 21.1729C24.5464 20.6671 23.8605 20.383 23.1452 20.383C22.4299 20.383 21.744 20.6671 21.2382 21.1729C20.7325 21.6786 20.4483 22.3646 20.4483 23.0799Z" stroke="#986CFD" stroke-width="2.69687" stroke-linecap="round" stroke-linejoin="round"/>
</svg>
