<svg width="28" height="28" viewBox="0 0 28 28" fill="none" xmlns="http://www.w3.org/2000/svg">
<path d="M5.40098 5.7965L22.526 22.9216M5.40098 22.9216L22.526 5.7965M1.82764 14.3591C1.82764 15.9528 2.14154 17.5309 2.75142 19.0033C3.36131 20.4757 4.25523 21.8135 5.38215 22.9405C6.50907 24.0674 7.84692 24.9613 9.31931 25.5712C10.7917 26.1811 12.3698 26.495 13.9635 26.495C15.5572 26.495 17.1353 26.1811 18.6077 25.5712C20.0801 24.9613 21.4179 24.0674 22.5449 22.9405C23.6718 21.8135 24.5657 20.4757 25.1756 19.0033C25.7855 17.5309 26.0994 15.9528 26.0994 14.3591C26.0994 12.7654 25.7855 11.1872 25.1756 9.71485C24.5657 8.24245 23.6718 6.9046 22.5449 5.77767C21.4179 4.65075 20.0801 3.75682 18.6077 3.14694C17.1353 2.53705 15.5572 2.22314 13.9635 2.22314C12.3698 2.22314 10.7917 2.53705 9.31931 3.14694C7.84692 3.75682 6.50907 4.65075 5.38215 5.77767C4.25523 6.9046 3.36131 8.24245 2.75142 9.71485C2.14154 11.1872 1.82764 12.7654 1.82764 14.3591Z" stroke="#986CFD" stroke-width="2.69687" stroke-linecap="round" stroke-linejoin="round"/>
<path d="M13.9635 2.22314C13.9635 5.44179 15.2421 8.52861 17.518 10.8045C19.7939 13.0805 22.8808 14.3591 26.0994 14.3591M1.82764 14.3591C5.04627 14.3591 8.13308 15.6377 10.409 17.9136C12.6849 20.1895 13.9635 23.2763 13.9635 26.495" stroke="#986CFD" stroke-width="2.69687" stroke-linecap="round" stroke-linejoin="round"/>
</svg>
