<svg width="14" height="16" viewBox="0 0 14 16" fill="none" xmlns="http://www.w3.org/2000/svg">
<path d="M1 10.9278C1 11.5245 1.23762 12.0968 1.66058 12.5188C2.08354 12.9407 2.6572 13.1778 3.25535 13.1778C3.85351 13.1778 4.42717 12.9407 4.85013 12.5188C5.27309 12.0968 5.51071 11.5245 5.51071 10.9278C5.51071 10.331 5.27309 9.75875 4.85013 9.33679C4.42717 8.91483 3.85351 8.67778 3.25535 8.67778C2.6572 8.67778 2.08354 8.91483 1.66058 9.33679C1.23762 9.75875 1 10.331 1 10.9278ZM9.26963 13.1778C9.26963 13.5756 9.42804 13.9571 9.71001 14.2384C9.99199 14.5197 10.3744 14.6778 10.7732 14.6778C11.172 14.6778 11.5544 14.5197 11.8364 14.2384C12.1184 13.9571 12.2768 13.5756 12.2768 13.1778C12.2768 12.78 12.1184 12.3984 11.8364 12.1171C11.5544 11.8358 11.172 11.6778 10.7732 11.6778C10.3744 11.6778 9.99199 11.8358 9.71001 12.1171C9.42804 12.3984 9.26963 12.78 9.26963 13.1778ZM6.26249 4.55278C6.26249 5.44789 6.61892 6.30633 7.25336 6.93927C7.8878 7.5722 8.74829 7.92778 9.64552 7.92778C10.5428 7.92778 11.4032 7.5722 12.0377 6.93927C12.6721 6.30633 13.0286 5.44789 13.0286 4.55278C13.0286 3.65767 12.6721 2.79923 12.0377 2.16629C11.4032 1.53336 10.5428 1.17778 9.64552 1.17778C8.74829 1.17778 7.8878 1.53336 7.25336 2.16629C6.61892 2.79923 6.26249 3.65767 6.26249 4.55278Z" stroke="white" stroke-linecap="round" stroke-linejoin="round"/>
</svg>
