<svg width="30" height="28" viewBox="0 0 30 28" fill="none" xmlns="http://www.w3.org/2000/svg">
<path d="M25.944 1.50488V14.9892C25.944 17.8503 24.8075 20.5941 22.7845 22.6171C20.7614 24.6402 18.0176 25.7767 15.1566 25.7767C12.2956 25.7767 9.55175 24.6402 7.52871 22.6171C5.50567 20.5941 4.36914 17.8503 4.36914 14.9892V1.50488L8.99695 6.13271C10.8035 4.87251 12.9539 4.19839 15.1566 4.20175C17.542 4.20175 19.7453 4.97576 21.532 6.28644L25.944 1.50488Z" stroke="white" stroke-width="2.69687" stroke-linecap="round" stroke-linejoin="round"/>
<path d="M1.67358 19.0347H8.41574L3.02201 24.4284M28.6422 19.0347H21.9L27.2938 24.4284M11.1126 12.2925V12.306M19.2032 12.2925V12.306M13.8095 19.0347C13.8095 19.3923 13.9515 19.7353 14.2044 19.9881C14.4573 20.241 14.8003 20.3831 15.1579 20.3831C15.5155 20.3831 15.8585 20.241 16.1114 19.9881C16.3643 19.7353 16.5063 19.3923 16.5063 19.0347C16.5063 18.677 16.3643 18.3341 16.1114 18.0812C15.8585 17.8283 15.5155 17.6862 15.1579 17.6862C14.8003 17.6862 14.4573 17.8283 14.2044 18.0812C13.9515 18.3341 13.8095 18.677 13.8095 19.0347Z" stroke="white" stroke-width="2.69687" stroke-linecap="round" stroke-linejoin="round"/>
</svg>
