<svg width="30" height="20" viewBox="0 0 30 20" fill="none" xmlns="http://www.w3.org/2000/svg">
<path d="M1.47168 9.64066H2.82011M6.8654 4.24692H4.16854C3.81091 4.24692 3.46794 4.38899 3.21506 4.64187C2.96218 4.89475 2.82011 5.23773 2.82011 5.59536V13.686C2.82011 14.0436 2.96218 14.3866 3.21506 14.6395C3.46794 14.8923 3.81091 15.0344 4.16854 15.0344H6.8654M10.9107 9.64066H19.0013M23.0466 4.24692H25.7434C26.1011 4.24692 26.444 4.38899 26.6969 4.64187C26.9498 4.89475 27.0919 5.23773 27.0919 5.59536V13.686C27.0919 14.0436 26.9498 14.3866 26.6969 14.6395C26.444 14.8923 26.1011 15.0344 25.7434 15.0344H23.0466M28.4403 9.64066H27.0919M6.8654 2.89848V16.3828C6.8654 16.7405 7.00747 17.0834 7.26035 17.3363C7.51323 17.5892 7.85621 17.7313 8.21383 17.7313H9.56226C9.91989 17.7313 10.2629 17.5892 10.5157 17.3363C10.7686 17.0834 10.9107 16.7405 10.9107 16.3828V2.89848C10.9107 2.54086 10.7686 2.19788 10.5157 1.945C10.2629 1.69212 9.91989 1.55005 9.56226 1.55005H8.21383C7.85621 1.55005 7.51323 1.69212 7.26035 1.945C7.00747 2.19788 6.8654 2.54086 6.8654 2.89848ZM19.0013 2.89848V16.3828C19.0013 16.7405 19.1433 17.0834 19.3962 17.3363C19.6491 17.5892 19.9921 17.7313 20.3497 17.7313H21.6981C22.0558 17.7313 22.3987 17.5892 22.6516 17.3363C22.9045 17.0834 23.0466 16.7405 23.0466 16.3828V2.89848C23.0466 2.54086 22.9045 2.19788 22.6516 1.945C22.3987 1.69212 22.0558 1.55005 21.6981 1.55005H20.3497C19.9921 1.55005 19.6491 1.69212 19.3962 1.945C19.1433 2.19788 19.0013 2.54086 19.0013 2.89848Z" stroke="white" stroke-width="2.69687" stroke-linecap="round" stroke-linejoin="round"/>
</svg>
