<svg width="40" height="40" viewBox="0 0 40 40" fill="none" xmlns="http://www.w3.org/2000/svg">
<circle cx="20" cy="20" r="20" fill="#E6DCFF"/>
<path d="M11.9988 15.9995C11.9988 14.9386 12.4202 13.9212 13.1704 13.1711C13.9205 12.4209 14.9379 11.9995 15.9988 11.9995H23.9988C25.0596 11.9995 26.0771 12.4209 26.8272 13.1711C27.5774 13.9212 27.9988 14.9386 27.9988 15.9995V23.9995C27.9988 25.0604 27.5774 26.0778 26.8272 26.8279C26.0771 27.5781 25.0596 27.9995 23.9988 27.9995H15.9988C14.9379 27.9995 13.9205 27.5781 13.1704 26.8279C12.4202 26.0778 11.9988 25.0604 11.9988 23.9995V15.9995Z" stroke="#8049FD" stroke-width="2" stroke-linecap="round" stroke-linejoin="round"/>
<path d="M24.4988 15.4995V15.5095M16.9988 19.9995C16.9988 20.7952 17.3148 21.5582 17.8775 22.1208C18.4401 22.6834 19.2031 22.9995 19.9988 22.9995C20.7944 22.9995 21.5575 22.6834 22.1201 22.1208C22.6827 21.5582 22.9988 20.7952 22.9988 19.9995C22.9988 19.2039 22.6827 18.4408 22.1201 17.8782C21.5575 17.3156 20.7944 16.9995 19.9988 16.9995C19.2031 16.9995 18.4401 17.3156 17.8775 17.8782C17.3148 18.4408 16.9988 19.2039 16.9988 19.9995Z" stroke="#8049FD" stroke-width="2" stroke-linecap="round" stroke-linejoin="round"/>
</svg>
