<svg width="40" height="40" viewBox="0 0 40 40" fill="none" xmlns="http://www.w3.org/2000/svg">
<circle cx="20" cy="20" r="20" fill="#E6DCFF"/>
<path d="M15.9988 18.9995V23.9995M15.9988 15.9995V16.0095M19.9988 23.9995V18.9995M11.9988 13.9995C11.9988 13.4691 12.2095 12.9604 12.5846 12.5853C12.9596 12.2102 13.4683 11.9995 13.9988 11.9995H25.9988C26.5292 11.9995 27.0379 12.2102 27.413 12.5853C27.7881 12.9604 27.9988 13.4691 27.9988 13.9995V25.9995C27.9988 26.5299 27.7881 27.0387 27.413 27.4137C27.0379 27.7888 26.5292 27.9995 25.9988 27.9995H13.9988C13.4683 27.9995 12.9596 27.7888 12.5846 27.4137C12.2095 27.0387 11.9988 26.5299 11.9988 25.9995V13.9995Z" stroke="#8049FD" stroke-width="2" stroke-linecap="round" stroke-linejoin="round"/>
<path d="M23.9985 23.9995V20.9995C23.9985 20.4691 23.7878 19.9604 23.4127 19.5853C23.0377 19.2102 22.529 18.9995 21.9985 18.9995C21.4681 18.9995 20.9594 19.2102 20.5843 19.5853C20.2092 19.9604 19.9985 20.4691 19.9985 20.9995" stroke="#8049FD" stroke-width="2" stroke-linecap="round" stroke-linejoin="round"/>
</svg>
