<svg width="25" height="28" viewBox="0 0 25 28" fill="none" xmlns="http://www.w3.org/2000/svg">
<path d="M1.37183 23.7982C1.37183 24.5134 1.65596 25.1994 2.16172 25.7052C2.66748 26.2109 3.35344 26.4951 4.06869 26.4951C4.78394 26.4951 5.4699 26.2109 5.97566 25.7052C6.48142 25.1994 6.76555 24.5134 6.76555 23.7982C6.76555 23.0829 6.48142 22.397 5.97566 21.8912C5.4699 21.3855 4.78394 21.1013 4.06869 21.1013C3.35344 21.1013 2.66748 21.3855 2.16172 21.8912C1.65596 22.397 1.37183 23.0829 1.37183 23.7982ZM16.2046 23.7982C16.2046 24.5134 16.4887 25.1994 16.9945 25.7052C17.5002 26.2109 18.1862 26.4951 18.9014 26.4951C19.6167 26.4951 20.3026 26.2109 20.8084 25.7052C21.3142 25.1994 21.5983 24.5134 21.5983 23.7982C21.5983 23.0829 21.3142 22.397 20.8084 21.8912C20.3026 21.3855 19.6167 21.1013 18.9014 21.1013C18.1862 21.1013 17.5002 21.3855 16.9945 21.8912C16.4887 22.397 16.2046 23.0829 16.2046 23.7982Z" stroke="#986CFD" stroke-width="2.69687" stroke-linecap="round" stroke-linejoin="round"/>
<path d="M18.9014 21.1014H4.06869V2.22327H1.37183" stroke="#986CFD" stroke-width="2.69687" stroke-linecap="round" stroke-linejoin="round"/>
<path d="M4.06738 4.92029L22.9454 6.26872L21.597 15.7078H4.06738" stroke="#986CFD" stroke-width="2.69687" stroke-linecap="round" stroke-linejoin="round"/>
</svg>
