<svg width="28" height="28" viewBox="0 0 28 28" fill="none" xmlns="http://www.w3.org/2000/svg">
<path d="M4.62411 13.0109C5.33936 13.0109 6.02532 13.295 6.53108 13.8008C7.03684 14.3065 7.32097 14.9925 7.32097 15.7077V18.4046H20.8053V15.7077C20.8053 14.9925 21.0894 14.3065 21.5952 13.8008C22.1009 13.295 22.7869 13.0109 23.5021 13.0109C24.2174 13.0109 24.9033 13.295 25.4091 13.8008C25.9149 14.3065 26.199 14.9925 26.199 15.7077V21.1015C26.199 21.8167 25.9149 22.5027 25.4091 23.0085C24.9033 23.5142 24.2174 23.7983 23.5021 23.7983H4.62411C3.90885 23.7983 3.2229 23.5142 2.71714 23.0085C2.21138 22.5027 1.92725 21.8167 1.92725 21.1015V15.7077C1.92725 14.9925 2.21138 14.3065 2.71714 13.8008C3.2229 13.295 3.90885 13.0109 4.62411 13.0109Z" stroke="white" stroke-width="2.69687" stroke-linecap="round" stroke-linejoin="round"/>
<path d="M4.6228 13.0109V6.2687C4.6228 5.19581 5.049 4.16687 5.80764 3.40823C6.56628 2.64959 7.59522 2.22339 8.66809 2.22339H19.4555C20.5284 2.22339 21.5574 2.64959 22.316 3.40823C23.0746 4.16687 23.5008 5.19581 23.5008 6.2687V13.0109M5.97123 23.7984V26.4952M22.1524 23.7984V26.4952" stroke="white" stroke-width="2.69687" stroke-linecap="round" stroke-linejoin="round"/>
</svg>
