<svg width="40" height="40" viewBox="0 0 40 40" fill="none" xmlns="http://www.w3.org/2000/svg">
<circle cx="20" cy="20" r="20" fill="#E6DCFF"/>
<path d="M28.9995 15.9172V19.9512C27.1856 19.7713 25.456 19.0964 23.9995 18.0002V22.5002C23.9992 23.7214 23.655 24.9177 23.0062 25.9523C22.3574 26.9868 21.4303 27.8176 20.3312 28.3496C19.232 28.8816 18.0052 29.0931 16.7914 28.9601C15.5775 28.8271 14.4257 28.3548 13.4678 27.5974C12.51 26.84 11.7849 25.828 11.3755 24.6775C10.9662 23.5271 10.8893 22.2845 11.1535 21.0923C11.4177 19.9001 12.0124 18.8065 12.8695 17.9367C13.7266 17.0668 14.8113 16.456 15.9995 16.1742V20.5002C15.6586 20.7559 15.3887 21.0945 15.2155 21.4838C15.0422 21.8732 14.9713 22.3003 15.0096 22.7248C15.0479 23.1492 15.194 23.5568 15.4341 23.9088C15.6742 24.2609 16.0003 24.5457 16.3815 24.7363C16.7626 24.9269 17.1862 25.0169 17.6119 24.9977C18.0376 24.9786 18.4513 24.8509 18.8138 24.6269C19.1763 24.4028 19.4756 24.0899 19.6831 23.7177C19.8906 23.3455 19.9995 22.9264 19.9995 22.5002V11.0002H24.0825C24.2907 12.2286 24.8759 13.3619 25.7569 14.2429C26.6379 15.1239 27.7711 15.709 28.9995 15.9172Z" stroke="#8049FD" stroke-width="2" stroke-linecap="round" stroke-linejoin="round"/>
</svg>
