<svg width="40" height="40" viewBox="0 0 40 40" fill="none" xmlns="http://www.w3.org/2000/svg">
<circle cx="20" cy="20" r="20" fill="#E6DCFF"/>
<path d="M10.9995 17.0002C10.9995 15.9394 11.4209 14.922 12.1711 14.1718C12.9212 13.4217 13.9386 13.0002 14.9995 13.0002H24.9995C26.0604 13.0002 27.0778 13.4217 27.8279 14.1718C28.5781 14.922 28.9995 15.9394 28.9995 17.0002V23.0002C28.9995 24.0611 28.5781 25.0785 27.8279 25.8287C27.0778 26.5788 26.0604 27.0002 24.9995 27.0002H14.9995C13.9386 27.0002 12.9212 26.5788 12.1711 25.8287C11.4209 25.0785 10.9995 24.0611 10.9995 23.0002V17.0002Z" stroke="#8049FD" stroke-width="2" stroke-linecap="round" stroke-linejoin="round"/>
<path d="M17.9998 17L22.9998 20L17.9998 23V17Z" stroke="#8049FD" stroke-width="2" stroke-linecap="round" stroke-linejoin="round"/>
</svg>
